# xmcd CD database file
#
# Track frame offsets:
#	150
#	13133
#	92761
#	134986
#	187005
#	209192
#	254324
#	267869
#	282737
#
# Disc length: 3836 seconds
#
# Revision: 0
# Processed by: cddbd v1.5.1PL0 Copyright (c) Steve Scherf et al.
# Submitted via: CDex 1.51
#
DISCID=990efa09
DTITLE=Abdullah Ibrahim and Ekaya - In Toronto
DYEAR=1987
DGENRE=Jazz
TTITLE0=The Mountain
TTITLE1=Tuang Guru
TTITLE2=Mandela
TTITLE3=Bittersweet Struggle/African Dawn
TTITLE4=Eclipse at Dawn/Prelude to Blues for a Hip King
TTITLE5=Blues for a Hip King
TTITLE6=Do You Know What Apartheid Is?
TTITLE7=The Wedding
TTITLE8=band intros
EXTD=YEAR: 1987
EXTT0=
EXTT1=
EXTT2=
EXTT3=
EXTT4=
EXTT5=
EXTT6=
EXTT7=
EXTT8=
PLAYORDER=
